<svg width="84" height="84" viewBox="0 0 84 84" fill="none" xmlns="http://www.w3.org/2000/svg">
<g clip-path="url(#clip0_3_25)">
<path d="M41.8737 27.6591C33.9868 27.6591 27.6252 33.9213 27.6252 41.6849C27.6252 49.4486 33.9868 55.7108 41.8737 55.7108C49.7606 55.7108 56.1222 49.4486 56.1222 41.6849C56.1222 33.9213 49.7606 27.6591 41.8737 27.6591ZM41.8737 50.8036C36.777 50.8036 32.6103 46.7142 32.6103 41.6849C32.6103 36.6556 36.7646 32.5663 41.8737 32.5663C46.9828 32.5663 51.1371 36.6556 51.1371 41.6849C51.1371 46.7142 46.9704 50.8036 41.8737 50.8036ZM60.0284 27.0853C60.0284 28.9042 58.5403 30.3568 56.705 30.3568C54.8573 30.3568 53.3816 28.892 53.3816 27.0853C53.3816 25.2787 54.8697 23.8138 56.705 23.8138C58.5403 23.8138 60.0284 25.2787 60.0284 27.0853ZM69.4654 30.4056C69.2546 26.0233 68.2378 22.1415 64.9763 18.9432C61.7273 15.745 57.7839 14.744 53.332 14.5243C48.7437 14.2679 34.9912 14.2679 30.403 14.5243C25.9635 14.7318 22.02 15.7328 18.7586 18.931C15.4972 22.1293 14.4927 26.0111 14.2695 30.3934C14.0091 34.91 14.0091 48.4476 14.2695 52.9642C14.4803 57.3465 15.4972 61.2284 18.7586 64.4266C22.02 67.6248 25.9511 68.6258 30.403 68.8455C34.9912 69.1019 48.7437 69.1019 53.332 68.8455C57.7839 68.638 61.7273 67.6371 64.9763 64.4266C68.2254 61.2284 69.2422 57.3465 69.4654 52.9642C69.7258 48.4476 69.7258 34.9222 69.4654 30.4056ZM63.5379 57.8104C62.5706 60.203 60.6981 62.0462 58.2551 63.0106C54.5969 64.4388 45.9163 64.1092 41.8737 64.1092C37.831 64.1092 29.1381 64.4266 25.4922 63.0106C23.0617 62.0584 21.1892 60.2152 20.2095 57.8104C18.7586 54.2093 19.0934 45.6644 19.0934 41.6849C19.0934 37.7054 18.771 29.1483 20.2095 25.5594C21.1768 23.1669 23.0493 21.3236 25.4922 20.3592C29.1505 18.931 37.831 19.2606 41.8737 19.2606C45.9163 19.2606 54.6093 18.9432 58.2551 20.3592C60.6857 21.3114 62.5582 23.1547 63.5379 25.5594C64.9887 29.1605 64.6539 37.7054 64.6539 41.6849C64.6539 45.6644 64.9887 54.2215 63.5379 57.8104Z" fill="white"/>
</g>
<defs>
<clipPath id="clip0_3_25">
<rect width="55.5556" height="62.5" fill="white" transform="translate(14.0837 10.4414)"/>
</clipPath>
</defs>
</svg>
