<svg width="85" height="84" viewBox="0 0 85 84" fill="none" xmlns="http://www.w3.org/2000/svg">
<g clip-path="url(#clip0_3_29)">
<path d="M27.281 66.0033V30.8627H15.3702V66.0033H27.281ZM21.3271 26.062C25.4806 26.062 28.066 23.3636 28.066 19.9915C27.9886 16.5434 25.4808 13.9199 21.406 13.9199C17.3318 13.9199 14.6675 16.5435 14.6675 19.9915C14.6675 23.3638 17.2522 26.062 21.2494 26.062H21.3268H21.3271ZM33.8736 66.0033H45.7843V46.3791C45.7843 45.3288 45.8617 44.2797 46.1762 43.5289C47.0373 41.4305 48.9971 39.2572 52.2874 39.2572C56.5974 39.2572 58.3216 42.4797 58.3216 47.2036V66.003H70.2316V45.8538C70.2316 35.06 64.3555 30.0377 56.5189 30.0377C50.0935 30.0377 47.2724 33.5597 45.7051 35.9585H45.7846V30.862H33.8738C34.0301 34.1594 33.8738 66.0026 33.8738 66.0026L33.8736 66.0033Z" fill="white"/>
</g>
<defs>
<clipPath id="clip0_3_29">
<rect width="55.5556" height="52.0833" fill="white" transform="translate(14.6675 13.9199)"/>
</clipPath>
</defs>
</svg>
