<svg width="85" height="84" viewBox="0 0 85 84" fill="none" xmlns="http://www.w3.org/2000/svg">
<g clip-path="url(#clip0_3_33)">
<path d="M73.8049 23.3122C71.4645 24.2999 68.9821 24.9483 66.4402 25.2357C69.0879 23.7239 71.1208 21.3298 72.0781 18.4774C69.5612 19.9003 66.8074 20.9029 63.9358 21.4417C61.5967 19.0677 58.2644 17.584 54.5762 17.584C47.4946 17.584 41.7532 23.0535 41.7532 29.7996C41.7532 30.7571 41.8667 31.6893 42.0852 32.5836C31.4285 32.074 21.9802 27.2108 15.6558 19.8201C14.5522 21.6243 13.9199 23.7229 13.9199 25.9614C13.9199 30.1996 16.1838 33.9385 19.6243 36.1292C17.588 36.0685 15.5966 35.5445 13.8162 34.6011C13.8154 34.6523 13.8154 34.7035 13.8154 34.7549C13.8154 40.6736 18.2354 45.611 24.1011 46.7332C22.2129 47.2224 20.2322 47.294 18.3105 46.9425C19.9421 51.7957 24.6777 55.3274 30.2886 55.4262C25.9001 58.7024 20.3711 60.6555 14.3638 60.6555C13.3286 60.6555 12.3081 60.5976 11.3049 60.4848C16.9795 63.9508 23.7195 65.9732 30.9607 65.9732C54.5464 65.9732 67.4436 47.3589 67.4436 31.2163C67.4436 30.6864 67.4314 30.1596 67.4065 29.6358C69.9168 27.9069 72.0835 25.7656 73.8049 23.3122Z" fill="white"/>
</g>
<defs>
<clipPath id="clip0_3_33">
<rect width="62.5" height="48.6111" fill="white" transform="translate(11.3048 17.3867)"/>
</clipPath>
</defs>
</svg>
